<svg width="552.8" height="205.3" xmlns="http://www.w3.org/2000/svg" xmlns:svg="http://www.w3.org/2000/svg" xmlns:xlink="http://www.w3.org/1999/xlink">
 <style>.st0{fill:#fff}.st1{clip-path:url(#SVGID_2_)}.st2{clip-path:url(#SVGID_4_)}.st3{clip-path:url(#SVGID_6_)}.st4{clip-path:url(#SVGID_8_)}.st5{fill:#fff;stroke:#000;stroke-width:4;stroke-miterlimit:10}.st6{clip-path:url(#SVGID_8_)}.st6,.st7{fill:none;stroke:#000;stroke-width:4;stroke-miterlimit:10}.st8,.st9{clip-path:url(#SVGID_10_)}.st9{fill:none;stroke:#000;stroke-width:4;stroke-miterlimit:10}</style>
 <title>rs_school_js</title>
 <defs>
  <ellipse ry="51.8" rx="63" cy="67.9" cx="420.5" transform="rotate(-37.000999450683594 420.4599914550782,67.8799972534179) " id="SVGID_1_"/>
 </defs>
 <clipPath id="SVGID_2_">
  <use id="svg_1" xlink:href="#SVGID_1_"/>
 </clipPath>
 <g>
  <title>Layer 1</title>
  <path fill="#5d6681" id="svg_2" d="m285.4,68l26.3,-1.7c0.6,4.3 1.7,7.5 3.5,9.8c2.9,3.6 6.9,5.4 12.2,5.4c3.9,0 7,-0.9 9.1,-2.8c2,-1.5 3.2,-3.9 3.2,-6.4c0,-2.4 -1.1,-4.7 -3,-6.2c-2,-1.8 -6.7,-3.6 -14.1,-5.2c-12.1,-2.7 -20.8,-6.3 -25.9,-10.9c-5.1,-4.3 -8,-10.6 -7.8,-17.3c0,-4.6 1.4,-9.2 4,-13c3,-4.3 7.1,-7.7 12,-9.6c5.3,-2.3 12.7,-3.5 22,-3.5c11.4,0 20.1,2.1 26.1,6.4c6,4.2 9.6,11 10.7,20.3l-26,1.5c-0.7,-4 -2.1,-6.9 -4.4,-8.8s-5.3,-2.8 -9.2,-2.8c-3.2,0 -5.6,0.7 -7.2,2c-1.5,1.2 -2.5,3 -2.4,5c0,1.5 0.8,2.9 2,3.8c1.3,1.2 4.4,2.3 9.3,3.3c12.1,2.6 20.7,5.2 26,7.9c5.3,2.7 9.1,6 11.4,9.9c2.4,4 3.6,8.6 3.5,13.3c0,5.6 -1.6,11.2 -4.8,15.9c-3.3,4.9 -7.9,8.7 -13.3,11c-5.7,2.5 -12.9,3.8 -21.5,3.8c-15.2,0 -25.7,-2.9 -31.6,-8.8s-9.4,-13.3 -10.1,-22.3zm-279.1,29.6l0,-89.4l46.1,0c8.5,0 15.1,0.7 19.6,2.2c4.4,1.4 8.3,4.3 10.9,8.2c2.9,4.3 4.3,9.3 4.2,14.5c0.3,8.8 -4.2,17.2 -11.9,21.6c-3,1.7 -6.3,2.9 -9.7,3.5c2.5,0.7 5,1.9 7.2,3.3c1.7,1.4 3.1,3 4.4,4.7c1.5,1.7 2.8,3.6 3.9,5.6l13.4,25.9l-31.4,0l-14.8,-27.5c-1.9,-3.5 -3.5,-5.8 -5,-6.9c-2,-1.4 -4.4,-2.1 -6.8,-2.1l-2.4,0l0,36.3l-27.7,0l0,0.1zm27.7,-53.2l11.7,0c2.5,-0.2 4.9,-0.6 7.3,-1.2c1.8,-0.3 3.4,-1.3 4.5,-2.8c2.7,-3.6 2.3,-8.7 -1,-11.8c-1.8,-1.5 -5.3,-2.3 -10.3,-2.3l-12.2,0l0,18.1zm-34,129.8l26.3,-1.7c0.6,4.3 1.7,7.5 3.5,9.8c2.8,3.6 6.9,5.5 12.2,5.5c3.9,0 7,-0.9 9.1,-2.8c2,-1.6 3.2,-3.9 3.2,-6.4c0,-2.4 -1.1,-4.7 -3,-6.2c-2,-1.8 -6.7,-3.6 -14.2,-5.2c-12.1,-2.7 -20.8,-6.3 -25.9,-10.9c-5.1,-4.3 -8,-10.6 -7.8,-17.3c0,-4.6 1.4,-9.2 4,-13c3,-4.3 7.1,-7.7 12,-9.6c5.3,-2.3 12.7,-3.5 22,-3.5c11.4,0 20.1,2.1 26.1,6.4s9.5,11 10.6,20.3l-26,1.5c-0.7,-4 -2.1,-6.9 -4.4,-8.8c-2.2,-1.9 -5.3,-2.8 -9.2,-2.7c-3.2,0 -5.6,0.7 -7.2,2.1c-1.6,1.2 -2.5,3 -2.4,5c0,1.5 0.8,2.9 2,3.8c1.3,1.2 4.4,2.3 9.3,3.3c12.1,2.6 20.7,5.2 26,7.9c5.3,2.7 9.1,6 11.4,9.9c2.4,4 3.6,8.6 3.6,13.2c0,5.6 -1.7,11.1 -4.8,15.8c-3.3,4.9 -7.9,8.7 -13.3,11c-5.7,2.5 -12.9,3.8 -21.5,3.8c-15.2,0 -25.7,-2.9 -31.6,-8.8c-5.9,-6 -9.2,-13.4 -10,-22.4z"/>
  <path fill="#5d6681" id="svg_3" d="m133,167.2l24.2,7.3c-1.3,6.1 -4,11.9 -7.7,17c-3.4,4.5 -7.9,8 -13,10.3c-5.2,2.3 -11.8,3.5 -19.8,3.5c-9.7,0 -17.7,-1.4 -23.8,-4.2c-6.2,-2.8 -11.5,-7.8 -16,-14.9c-4.5,-7.1 -6.7,-16.2 -6.7,-27.3c0,-14.8 3.9,-26.2 11.8,-34.1s19,-11.9 33.4,-11.9c11.3,0 20.1,2.3 26.6,6.8c6.4,4.6 11.2,11.6 14.4,21l-24.4,5.4c-0.6,-2.1 -1.5,-4.2 -2.7,-6c-1.5,-2.1 -3.4,-3.7 -5.7,-4.9c-2.3,-1.2 -4.9,-1.7 -7.5,-1.7c-6.3,0 -11.1,2.5 -14.4,7.6c-2.5,3.7 -3.8,9.6 -3.8,17.6c0,9.9 1.5,16.7 4.5,20.4c3,3.7 7.2,5.5 12.7,5.5c5.3,0 9.3,-1.5 12,-4.4c2.7,-3.1 4.7,-7.4 5.9,-13zm56.5,-52.8l27.6,0l0,31.3l30.2,0l0,-31.3l27.8,0l0,89.4l-27.8,0l0,-36.2l-30.2,0l0,36.2l-27.6,0l0,-89.4z"/>
  <path fill="#5d6681" id="svg_4" d="m271.3,159.1c0,-14.6 4.1,-26 12.2,-34.1c8.1,-8.1 19.5,-12.2 34,-12.2c14.9,0 26.3,4 34.4,12s12.1,19.2 12.1,33.6c0,10.5 -1.8,19 -5.3,25.7c-3.4,6.6 -8.7,12 -15.2,15.6c-6.7,3.7 -15,5.6 -24.9,5.6c-10.1,0 -18.4,-1.6 -25,-4.8c-6.8,-3.4 -12.4,-8.7 -16.1,-15.2c-4.1,-7 -6.2,-15.7 -6.2,-26.2zm27.6,0.1c0,9 1.7,15.5 5,19.5c3.3,3.9 7.9,5.9 13.7,5.9c5.9,0 10.5,-1.9 13.8,-5.8s4.9,-10.8 4.9,-20.8c0,-8.4 -1.7,-14.6 -5.1,-18.4c-3.4,-3.9 -8,-5.8 -13.8,-5.8c-5.1,-0.2 -10,2 -13.4,5.9c-3.4,3.9 -5.1,10.4 -5.1,19.5zm93.4,-0.1c0,-14.6 4.1,-26 12.2,-34.1c8.1,-8.1 19.5,-12.2 34,-12.2c14.9,0 26.4,4 34.4,12s12.1,19.2 12.1,33.6c0,10.5 -1.8,19 -5.3,25.7c-3.4,6.6 -8.7,12 -15.2,15.6c-6.7,3.7 -15,5.6 -24.9,5.6c-10.1,0 -18.4,-1.6 -25,-4.8c-6.8,-3.4 -12.4,-8.7 -16.1,-15.2c-4.1,-7 -6.2,-15.7 -6.2,-26.2zm27.6,0.1c0,9 1.7,15.5 5,19.5c3.3,3.9 7.9,5.9 13.7,5.9c5.9,0 10.5,-1.9 13.8,-5.8c3.3,-3.9 4.9,-10.8 4.9,-20.8c0,-8.4 -1.7,-14.6 -5.1,-18.4c-3.4,-3.9 -8,-5.8 -13.8,-5.8c-5.1,-0.2 -10.1,2 -13.4,5.9c-3.4,3.9 -5.1,10.4 -5.1,19.5z"/>
  <path fill="#5d6681" id="svg_5" d="m482.1,114.4l27.6,0l0,67.4l43.1,0l0,22l-70.8,0l0,-89.4l0.1,0z"/>
  <ellipse fill="#5d6681" id="svg_6" ry="51.8" rx="63" cy="67.9" cx="420.5" class="st0" transform="rotate(-37.000999450683594 420.5,67.90000152587892) "/>
  <g id="svg_7" class="st1">
   <path fill="#5d6681" id="svg_8" d="m330.9,-14.2l179.8,0l0,165.1l-179.8,0l0,-165.1z" class="st0" transform="rotate(-37.000999450683594 420.7999877929688,68.34999847412108) "/>
   <g id="Layer_2_1_">
    <defs>
     <path fill="#5d6681" d="m330.9,-14.2l179.8,0l0,165.1l-179.8,0l0,-165.1z" transform="rotate(-37.000999450683594 420.7999877929688,68.34999847412108) " id="SVGID_3_"/>
    </defs>
    <clipPath id="SVGID_4_">
     <use x="0" y="0" transform="matrix(1,0,0,1,0,0) " fill="#5d6681" id="svg_9" xlink:href="#SVGID_3_"/>
    </clipPath>
    <g class="st2" id="Layer_1-2">
     <ellipse fill="#5d6681" id="svg_10" ry="51.8" rx="63" cy="67.9" cx="420.5" class="st0" transform="rotate(-37.000999450683594 420.5,67.90000152587892) "/>
     <defs>
      <ellipse fill="#5d6681" ry="51.8" rx="63" cy="67.9" cx="420.5" transform="rotate(-37.000999450683594 420.5,67.90000152587892) " id="SVGID_5_"/>
     </defs>
     <clipPath id="SVGID_6_">
      <use x="0" y="0" transform="matrix(1,0,0,1,0,0) " fill="#5d6681" id="svg_11" xlink:href="#SVGID_5_"/>
     </clipPath>
     <g id="svg_12" class="st3">
      <path fill="#5d6681" id="svg_13" d="m357.8,17l125.9,0l0,103.7l-125.9,0l0,-103.7z" class="st0" transform="rotate(-37 420.75,68.84999847412105) "/>
      <defs>
       <path fill="#5d6681" d="m357.8,17l125.9,0l0,103.7l-125.9,0l0,-103.7z" transform="rotate(-37 420.75,68.84999847412105) " id="SVGID_7_"/>
      </defs>
      <clipPath id="SVGID_8_">
       <use x="0" y="0" transform="matrix(1,0,0,1,0,0) " fill="#5d6681" id="svg_14" xlink:href="#SVGID_7_"/>
      </clipPath>
      <g id="svg_15" class="st4">
       <ellipse fill="#5d6681" id="svg_16" ry="51.8" rx="63" cy="67.9" cx="420.5" class="st5" transform="rotate(-37.000999450683594 420.5,67.90000152587892) "/>
      </g>
      <path fill="#5d6681" id="svg_17" d="m357.8,17l125.9,0l0,103.7l-125.9,0l0,-103.7z" class="st6" transform="rotate(-37 420.75,68.84999847412105) "/>
      <ellipse fill="#5d6681" id="svg_18" ry="51.8" rx="63" cy="67.9" cx="420.5" class="st7" transform="rotate(-37.000999450683594 420.5,67.90000152587892) "/>
      <path fill="#5d6681" id="svg_19" d="m357.8,17l125.9,0l0,103.7l-125.9,0l0,-103.7z" class="st0" transform="rotate(-37 420.75,68.84999847412105) "/>
      <defs>
       <path fill="#5d6681" d="m357.8,17l125.9,0l0,103.7l-125.9,0l0,-103.7z" transform="rotate(-37 420.75,68.84999847412105) " id="SVGID_9_"/>
      </defs>
      <clipPath id="SVGID_10_">
       <use x="0" y="0" transform="matrix(1,0,0,1,0,0) " fill="#5d6681" id="svg_20" xlink:href="#SVGID_9_"/>
      </clipPath>
      <g id="svg_21" class="st8">
       <ellipse fill="#5d6681" id="svg_22" ry="51.8" rx="63" cy="67.9" cx="420.5" class="st5" transform="rotate(-37.000999450683594 420.5,67.90000152587892) "/>
      </g>
      <path fill="#5d6681" id="svg_23" d="m357.8,17l125.9,0l0,103.7l-125.9,0l0,-103.7z" class="st9" transform="rotate(-37 420.75,68.84999847412105) "/>
      <path fill="#5d6681" id="svg_24" d="m330.9,-14.2l179.8,0l0,165.1l-179.8,0l0,-165.1z" class="st7" transform="rotate(-37.000999450683594 420.7999877929688,68.34999847412108) "/>
     </g>
     <ellipse fill="#5d6681" id="svg_25" ry="51.8" rx="63" cy="67.9" cx="420.5" class="st7" transform="rotate(-37.000999450683594 420.5,67.90000152587892) "/>
     <path fill="#5d6681" id="svg_26" d="m392.4,61.3l10,-7l12.3,17.5c2.1,2.8 3.7,5.8 4.9,9.1c0.7,2.5 0.5,5.2 -0.5,7.6c-1.3,3 -3.4,5.5 -6.2,7.3c-3.3,2.3 -6.1,3.6 -8.5,4c-2.3,0.4 -4.7,0 -6.9,-1c-2.4,-1.2 -4.5,-2.9 -6.1,-5.1l8.6,-8c0.7,1.1 1.6,2.1 2.6,2.9c0.7,0.5 1.5,0.8 2.4,0.8c0.7,0 1.4,-0.3 1.9,-0.7c1,-0.6 1.7,-1.8 1.6,-3c-0.3,-1.7 -1,-3.4 -2.1,-4.7l-14,-19.7zm30,11.1l9.1,-7.2c1,1.2 2.3,2.1 3.7,2.6c2,0.6 4.1,0.2 5.8,-1.1c1.2,-0.8 2.2,-1.9 2.6,-3.3c0.6,-1.8 -0.4,-3.8 -2.2,-4.4c-0.3,-0.1 -0.6,-0.2 -0.9,-0.2c-1.2,-0.1 -3.3,0.4 -6.4,1.7c-5.1,2.1 -9.1,2.9 -12.1,2.6c-2.9,-0.3 -5.6,-1.8 -7.2,-4.3c-1.2,-1.7 -1.8,-3.7 -1.9,-5.7c0,-2.3 0.6,-4.6 1.9,-6.5c1.9,-2.7 4.2,-5 7,-6.8c4.2,-2.9 7.9,-4.3 11.1,-4.3c3.2,0 6.2,1.5 9,4.6l-9,7.1c-1.8,-2.3 -5.2,-2.8 -7.5,-1l-0.3,0.3c-1,0.6 -1.7,1.5 -2.1,2.6c-0.3,0.8 -0.1,1.7 0.4,2.4c0.4,0.5 1,0.9 1.7,0.9c0.8,0.1 2.2,-0.3 4.2,-1.2c5,-2.1 8.8,-3.3 11.4,-3.7c2.2,-0.4 4.5,-0.2 6.6,0.7c1.9,0.8 3.5,2.2 4.6,3.9c1.4,2 2.2,4.4 2.3,6.9c0.1,2.6 -0.6,5.1 -2,7.3c-1.8,2.7 -4.1,5 -6.8,6.8c-5.5,3.8 -10,5.4 -13.6,4.8c-3.9,-0.6 -7.1,-2.6 -9.4,-5.5z"/>
    </g>
   </g>
  </g>
 </g>
</svg>